# xmcd
#
# Track frame offsets: 
#        150
#        18332
#        34976
#        46657
#        69319
#        86950
#        99190
#        113791
#        123357
#        140720
#        159376
#        174559
#
# Disc length: 2522 seconds
#
# Revision: 0
# Processed by: cddbd v1.5.2PL0 Copyright (c) Steve Scherf et al.
# Submitted via: ExactAudioCopyFreeDBPlugin 1.0
#
DISCID=9809d80c
DTITLE=Mark Eitzel - Glory
DYEAR=2013
DGENRE=Alternative
TTITLE0=The Road
TTITLE1=I Missed You
TTITLE2=I Hope We Can
TTITLE3=To Live
TTITLE4=You Know No One's There
TTITLE5=It's Alright
TTITLE6=Robs Your Grave
TTITLE7=Numbers
TTITLE8=Hells Angel
TTITLE9=Last 10 Years
TTITLE10=Yes Yes Yes Yes Yes
TTITLE11=Lemme Hear The Music
EXTD=
EXTT0=
EXTT1=
EXTT2=
EXTT3=
EXTT4=
EXTT5=
EXTT6=
EXTT7=
EXTT8=
EXTT9=
EXTT10=
EXTT11=
PLAYORDER=
